{
	"asset":{
		"generator":"Khronos glTF Blender I/O v4.2.57",
		"version":"2.0"
	},
	"scene":0,
	"scenes":[
		{
			"name":"Scene",
			"nodes":[
				0,
				1,
				2,
				3,
				4,
				5,
				6,
				7,
				8
			]
		}
	],
	"nodes":[
		{
			"mesh":0,
			"name":"giraffe_467fddf3-4651-4951-a225-8b5e47671b6c",
			"rotation":[
				0.7071068286895752,
				0,
				0,
				0.7071068286895752
			],
			"scale":[
				1,
				1,
				1.0350439548492432
			],
			"translation":[
				0,
				0,
				-7.53861141204834
			]
		},
		{
			"mesh":1,
			"name":"giraffe_4GFF6gLjYq5j9NrYWEQNU",
			"rotation":[
				0.7071068286895752,
				0,
				0,
				0.7071068286895752
			],
			"scale":[
				1,
				1,
				1.0350439548492432
			],
			"translation":[
				0,
				0,
				-4.107877254486084
			]
		},
		{
			"mesh":2,
			"name":"giraffe_5cbv-mg69bj7xyw-IQEeR",
			"rotation":[
				0.7071068286895752,
				0,
				0,
				0.7071068286895752
			],
			"scale":[
				1,
				1,
				1.0350439548492432
			],
			"translation":[
				0,
				0,
				-4.107877254486084
			]
		},
		{
			"mesh":3,
			"name":"giraffe_aa1da70b-1128-48db-9eab-730c3c9a33bb",
			"rotation":[
				0.7071068286895752,
				0,
				0,
				0.7071068286895752
			],
			"scale":[
				1,
				1,
				1.0350439548492432
			],
			"translation":[
				-6.995858192443848,
				0,
				-10.762858390808105
			]
		},
		{
			"mesh":4,
			"name":"giraffe_c7cd827c-83fc-43a2-8c3a-086512f74679",
			"rotation":[
				0.7071068286895752,
				0,
				0,
				0.7071068286895752
			],
			"scale":[
				1,
				1,
				1.0350439548492432
			]
		},
		{
			"mesh":5,
			"name":"giraffe_d278691a-1199-44ff-9839-fbc914652bdc",
			"rotation":[
				0.7069279551506042,
				-0.015899619087576866,
				0.015899620950222015,
				0.7069280743598938
			],
			"scale":[
				1,
				1,
				1.0350439548492432
			]
		},
		{
			"mesh":6,
			"name":"giraffe_j2FEcCtp6q0eyyTgx9ZzV",
			"rotation":[
				0.7071068286895752,
				0,
				0,
				0.7071068286895752
			],
			"scale":[
				1,
				1,
				1.0350439548492432
			]
		},
		{
			"mesh":7,
			"name":"giraffe_LhtgLB_8YRm4eWtLVGKP0",
			"rotation":[
				0.7071068286895752,
				0,
				0,
				0.7071068286895752
			],
			"scale":[
				1,
				1,
				1.0350439548492432
			]
		},
		{
			"mesh":8,
			"name":"NurbsPath",
			"scale":[
				7.443119525909424,
				7.443119525909424,
				7.443119525909424
			],
			"translation":[
				-56.45560836791992,
				1.3612618446350098,
				-30.603073120117188
			]
		}
	],
	"meshes":[
		{
			"name":"giraffe_467fddf3-4651-4951-a225-8b5e47671b6c",
			"primitives":[
				{
					"attributes":{
						"POSITION":0,
						"NORMAL":1,
						"TEXCOORD_0":2
					},
					"indices":3
				}
			]
		},
		{
			"name":"giraffe_4GFF6gLjYq5j9NrYWEQNU",
			"primitives":[
				{
					"attributes":{
						"POSITION":4,
						"NORMAL":5,
						"TEXCOORD_0":6
					},
					"indices":7
				}
			]
		},
		{
			"name":"giraffe_5cbv-mg69bj7xyw-IQEeR",
			"primitives":[
				{
					"attributes":{
						"POSITION":8,
						"NORMAL":9,
						"TEXCOORD_0":10
					},
					"indices":11
				}
			]
		},
		{
			"name":"giraffe_aa1da70b-1128-48db-9eab-730c3c9a33bb",
			"primitives":[
				{
					"attributes":{
						"POSITION":12,
						"NORMAL":13,
						"TEXCOORD_0":14
					},
					"indices":15
				}
			]
		},
		{
			"name":"giraffe_c7cd827c-83fc-43a2-8c3a-086512f74679",
			"primitives":[
				{
					"attributes":{
						"POSITION":16,
						"NORMAL":17,
						"TEXCOORD_0":18
					},
					"indices":19
				}
			]
		},
		{
			"name":"giraffe_d278691a-1199-44ff-9839-fbc914652bdc",
			"primitives":[
				{
					"attributes":{
						"POSITION":20,
						"NORMAL":21,
						"TEXCOORD_0":22
					},
					"indices":23
				}
			]
		},
		{
			"name":"giraffe_j2FEcCtp6q0eyyTgx9ZzV",
			"primitives":[
				{
					"attributes":{
						"POSITION":24,
						"NORMAL":25,
						"TEXCOORD_0":26
					},
					"indices":27
				}
			]
		},
		{
			"name":"giraffe_LhtgLB_8YRm4eWtLVGKP0",
			"primitives":[
				{
					"attributes":{
						"POSITION":28,
						"NORMAL":29,
						"TEXCOORD_0":30
					},
					"indices":31
				}
			]
		},
		{
			"name":"Mesh",
			"primitives":[
				{
					"attributes":{
						"POSITION":32,
						"NORMAL":33
					},
					"indices":34
				}
			]
		}
	],
	"accessors":[
		{
			"bufferView":0,
			"componentType":5126,
			"count":202,
			"max":[
				36.08964920043945,
				47.79708480834961,
				1.0613084812838205e-14
			],
			"min":[
				-20.58715057373047,
				33.68677520751953,
				-19.200000762939453
			],
			"type":"VEC3"
		},
		{
			"bufferView":1,
			"componentType":5126,
			"count":202,
			"type":"VEC3"
		},
		{
			"bufferView":2,
			"componentType":5126,
			"count":202,
			"type":"VEC2"
		},
		{
			"bufferView":3,
			"componentType":5123,
			"count":396,
			"type":"SCALAR"
		},
		{
			"bufferView":4,
			"componentType":5126,
			"count":238,
			"max":[
				93.02610778808594,
				52.903419494628906,
				-12
			],
			"min":[
				47.83031463623047,
				20.709430694580078,
				-24
			],
			"type":"VEC3"
		},
		{
			"bufferView":5,
			"componentType":5126,
			"count":238,
			"type":"VEC3"
		},
		{
			"bufferView":6,
			"componentType":5126,
			"count":238,
			"type":"VEC2"
		},
		{
			"bufferView":7,
			"componentType":5123,
			"count":540,
			"type":"SCALAR"
		},
		{
			"bufferView":8,
			"componentType":5126,
			"count":262,
			"max":[
				96.21390533447266,
				54.95839309692383,
				1.220321468252102e-14
			],
			"min":[
				45.45087814331055,
				17.117801666259766,
				-12
			],
			"type":"VEC3"
		},
		{
			"bufferView":9,
			"componentType":5126,
			"count":262,
			"type":"VEC3"
		},
		{
			"bufferView":10,
			"componentType":5126,
			"count":262,
			"type":"VEC2"
		},
		{
			"bufferView":11,
			"componentType":5123,
			"count":576,
			"type":"SCALAR"
		},
		{
			"bufferView":12,
			"componentType":5126,
			"count":270,
			"max":[
				144.70770263671875,
				58.14529037475586,
				1.291084802951389e-14
			],
			"min":[
				108.16085052490234,
				0.17153730988502502,
				-9
			],
			"type":"VEC3"
		},
		{
			"bufferView":13,
			"componentType":5126,
			"count":270,
			"type":"VEC3"
		},
		{
			"bufferView":14,
			"componentType":5126,
			"count":270,
			"type":"VEC2"
		},
		{
			"bufferView":15,
			"componentType":5123,
			"count":612,
			"type":"SCALAR"
		},
		{
			"bufferView":16,
			"componentType":5126,
			"count":36,
			"max":[
				-54.78390121459961,
				48.008018493652344,
				1.0659921499656631e-14
			],
			"min":[
				-120.17070770263672,
				-7.529913902282715,
				-16
			],
			"type":"VEC3"
		},
		{
			"bufferView":17,
			"componentType":5126,
			"count":36,
			"type":"VEC3"
		},
		{
			"bufferView":18,
			"componentType":5126,
			"count":36,
			"type":"VEC2"
		},
		{
			"bufferView":19,
			"componentType":5123,
			"count":60,
			"type":"SCALAR"
		},
		{
			"bufferView":20,
			"componentType":5126,
			"count":333,
			"max":[
				-88.29690551757812,
				-5.383063793182373,
				-1.1952802732434205e-15
			],
			"min":[
				-144.1608428955078,
				-54.271827697753906,
				-9
			],
			"type":"VEC3"
		},
		{
			"bufferView":21,
			"componentType":5126,
			"count":333,
			"type":"VEC3"
		},
		{
			"bufferView":22,
			"componentType":5126,
			"count":333,
			"type":"VEC2"
		},
		{
			"bufferView":23,
			"componentType":5123,
			"count":720,
			"type":"SCALAR"
		},
		{
			"bufferView":24,
			"componentType":5126,
			"count":184,
			"max":[
				-26.639286041259766,
				42.29830551147461,
				9.392110536293654e-15
			],
			"min":[
				-47.864871978759766,
				23.728479385375977,
				-12
			],
			"type":"VEC3"
		},
		{
			"bufferView":25,
			"componentType":5126,
			"count":184,
			"type":"VEC3"
		},
		{
			"bufferView":26,
			"componentType":5126,
			"count":184,
			"type":"VEC2"
		},
		{
			"bufferView":27,
			"componentType":5123,
			"count":420,
			"type":"SCALAR"
		},
		{
			"bufferView":28,
			"componentType":5126,
			"count":206,
			"max":[
				-62.51516342163086,
				42.18259048461914,
				-16
			],
			"min":[
				-101.28498840332031,
				32.11579895019531,
				-25.600000381469727
			],
			"type":"VEC3"
		},
		{
			"bufferView":29,
			"componentType":5126,
			"count":206,
			"type":"VEC3"
		},
		{
			"bufferView":30,
			"componentType":5126,
			"count":206,
			"type":"VEC2"
		},
		{
			"bufferView":31,
			"componentType":5123,
			"count":396,
			"type":"SCALAR"
		},
		{
			"bufferView":32,
			"componentType":5126,
			"count":288,
			"max":[
				26.632848739624023,
				0,
				11.781867980957031
			],
			"min":[
				-12.122304916381836,
				0,
				-4.7270917892456055
			],
			"type":"VEC3"
		},
		{
			"bufferView":33,
			"componentType":5126,
			"count":288,
			"type":"VEC3"
		},
		{
			"bufferView":34,
			"componentType":5123,
			"count":858,
			"type":"SCALAR"
		}
	],
	"bufferViews":[
		{
			"buffer":0,
			"byteLength":2424,
			"byteOffset":0,
			"target":34962
		},
		{
			"buffer":0,
			"byteLength":2424,
			"byteOffset":2424,
			"target":34962
		},
		{
			"buffer":0,
			"byteLength":1616,
			"byteOffset":4848,
			"target":34962
		},
		{
			"buffer":0,
			"byteLength":792,
			"byteOffset":6464,
			"target":34963
		},
		{
			"buffer":0,
			"byteLength":2856,
			"byteOffset":7256,
			"target":34962
		},
		{
			"buffer":0,
			"byteLength":2856,
			"byteOffset":10112,
			"target":34962
		},
		{
			"buffer":0,
			"byteLength":1904,
			"byteOffset":12968,
			"target":34962
		},
		{
			"buffer":0,
			"byteLength":1080,
			"byteOffset":14872,
			"target":34963
		},
		{
			"buffer":0,
			"byteLength":3144,
			"byteOffset":15952,
			"target":34962
		},
		{
			"buffer":0,
			"byteLength":3144,
			"byteOffset":19096,
			"target":34962
		},
		{
			"buffer":0,
			"byteLength":2096,
			"byteOffset":22240,
			"target":34962
		},
		{
			"buffer":0,
			"byteLength":1152,
			"byteOffset":24336,
			"target":34963
		},
		{
			"buffer":0,
			"byteLength":3240,
			"byteOffset":25488,
			"target":34962
		},
		{
			"buffer":0,
			"byteLength":3240,
			"byteOffset":28728,
			"target":34962
		},
		{
			"buffer":0,
			"byteLength":2160,
			"byteOffset":31968,
			"target":34962
		},
		{
			"buffer":0,
			"byteLength":1224,
			"byteOffset":34128,
			"target":34963
		},
		{
			"buffer":0,
			"byteLength":432,
			"byteOffset":35352,
			"target":34962
		},
		{
			"buffer":0,
			"byteLength":432,
			"byteOffset":35784,
			"target":34962
		},
		{
			"buffer":0,
			"byteLength":288,
			"byteOffset":36216,
			"target":34962
		},
		{
			"buffer":0,
			"byteLength":120,
			"byteOffset":36504,
			"target":34963
		},
		{
			"buffer":0,
			"byteLength":3996,
			"byteOffset":36624,
			"target":34962
		},
		{
			"buffer":0,
			"byteLength":3996,
			"byteOffset":40620,
			"target":34962
		},
		{
			"buffer":0,
			"byteLength":2664,
			"byteOffset":44616,
			"target":34962
		},
		{
			"buffer":0,
			"byteLength":1440,
			"byteOffset":47280,
			"target":34963
		},
		{
			"buffer":0,
			"byteLength":2208,
			"byteOffset":48720,
			"target":34962
		},
		{
			"buffer":0,
			"byteLength":2208,
			"byteOffset":50928,
			"target":34962
		},
		{
			"buffer":0,
			"byteLength":1472,
			"byteOffset":53136,
			"target":34962
		},
		{
			"buffer":0,
			"byteLength":840,
			"byteOffset":54608,
			"target":34963
		},
		{
			"buffer":0,
			"byteLength":2472,
			"byteOffset":55448,
			"target":34962
		},
		{
			"buffer":0,
			"byteLength":2472,
			"byteOffset":57920,
			"target":34962
		},
		{
			"buffer":0,
			"byteLength":1648,
			"byteOffset":60392,
			"target":34962
		},
		{
			"buffer":0,
			"byteLength":792,
			"byteOffset":62040,
			"target":34963
		},
		{
			"buffer":0,
			"byteLength":3456,
			"byteOffset":62832,
			"target":34962
		},
		{
			"buffer":0,
			"byteLength":3456,
			"byteOffset":66288,
			"target":34962
		},
		{
			"buffer":0,
			"byteLength":1716,
			"byteOffset":69744,
			"target":34963
		}
	],
	"buffers":[
		{
			"byteLength":71460,
			"uri":"model.bin"
		}
	]
}
